STARTFONT 2.1
FONT -Bitstream-Charter-Medium-I-Normal--12-120-75-75-P-65-ISO8859-15
SIZE 12 75 75
FONTBOUNDINGBOX 14 15 -2 -3

STARTPROPERTIES 25
FONTNAME_REGISTRY ""
FAMILY_NAME "Charter"
FOUNDRY "Bitstream"
WEIGHT_NAME "Medium"
SETWIDTH_NAME "Normal"
SLANT "I"
ADD_STYLE_NAME ""
PIXEL_SIZE 12
POINT_SIZE 120
RESOLUTION_X 75
RESOLUTION_Y 75
SPACING "P"
AVERAGE_WIDTH 65
CHARSET_REGISTRY "ISO8859"
CHARSET_ENCODING "15"
CAP_HEIGHT 9
X_HEIGHT 6
CHARSET_COLLECTIONS "ASCII ISOLATIN1"
FACE_NAME "Bitstream Charter Italic"
COPYRIGHT "Copyright 1987 by Bitstream Inc. Charter Registered trademark of Bitstream Inc."
WEIGHT 10
QUAD_WIDTH 7
DEFAULT_CHAR 0
FONT_DESCENT 3
FONT_ASCENT 12
ENDPROPERTIES

CHARS 191

STARTCHAR space
ENCODING 32
SWIDTH 278 0
DWIDTH 3 0
BBX 1 1 0 0
BITMAP
00
ENDCHAR

STARTCHAR exclam
ENCODING 33
SWIDTH 338 0
DWIDTH 4 0
BBX 3 9 1 0
BITMAP
20
60
60
40
40
40
40
00
C0
ENDCHAR

STARTCHAR quotedbl
ENCODING 34
SWIDTH 331 0
DWIDTH 5 0
BBX 3 4 1 4
BITMAP
A0
A0
A0
A0
ENDCHAR

STARTCHAR numbersign
ENCODING 35
SWIDTH 745 0
DWIDTH 9 0
BBX 7 9 1 -1
BITMAP
14
14
14
7E
28
FE
48
50
50
ENDCHAR

STARTCHAR dollar
ENCODING 36
SWIDTH 556 0
DWIDTH 7 0
BBX 6 10 0 -1
BITMAP
1C
34
54
70
30
28
A8
A8
70
20
ENDCHAR

STARTCHAR percent
ENCODING 37
SWIDTH 852 0
DWIDTH 11 0
BBX 9 9 1 0
BITMAP
2100
5200
9200
9500
AA80
5480
2480
2500
4200
ENDCHAR

STARTCHAR ampersand
ENCODING 38
SWIDTH 704 0
DWIDTH 9 0
BBX 8 9 0 0
BITMAP
38
44
44
78
73
92
8C
8C
73
ENDCHAR

STARTCHAR quoteright
ENCODING 39
SWIDTH 201 0
DWIDTH 3 0
BBX 2 3 1 5
BITMAP
C0
40
80
ENDCHAR

STARTCHAR parenleft
ENCODING 40
SWIDTH 419 0
DWIDTH 5 0
BBX 5 10 1 -2
BITMAP
18
20
40
40
80
80
80
80
80
60
ENDCHAR

STARTCHAR parenright
ENCODING 41
SWIDTH 419 0
DWIDTH 5 0
BBX 5 10 -1 -2
BITMAP
30
08
08
08
08
08
10
10
20
C0
ENDCHAR

STARTCHAR asterisk
ENCODING 42
SWIDTH 500 0
DWIDTH 6 0
BBX 5 4 1 4
BITMAP
20
F8
20
D0
ENDCHAR

STARTCHAR plus
ENCODING 43
SWIDTH 833 0
DWIDTH 10 0
BBX 7 7 2 0
BITMAP
10
10
10
FE
10
10
10
ENDCHAR

STARTCHAR comma
ENCODING 44
SWIDTH 278 0
DWIDTH 3 0
BBX 2 3 -1 -2
BITMAP
40
40
C0
ENDCHAR

STARTCHAR hyphen
ENCODING 45
SWIDTH 319 0
DWIDTH 4 0
BBX 3 1 0 2
BITMAP
E0
ENDCHAR

STARTCHAR period
ENCODING 46
SWIDTH 278 0
DWIDTH 3 0
BBX 1 1 0 0
BITMAP
80
ENDCHAR

STARTCHAR slash
ENCODING 47
SWIDTH 481 0
DWIDTH 6 0
BBX 8 10 -1 -1
BITMAP
01
02
04
04
08
10
20
20
40
80
ENDCHAR

STARTCHAR zero
ENCODING 48
SWIDTH 556 0
DWIDTH 7 0
BBX 6 9 1 0
BITMAP
18
64
44
84
84
84
88
98
60
ENDCHAR

STARTCHAR one
ENCODING 49
SWIDTH 556 0
DWIDTH 7 0
BBX 4 9 1 0
BITMAP
30
70
10
20
20
20
20
20
F0
ENDCHAR

STARTCHAR two
ENCODING 50
SWIDTH 556 0
DWIDTH 7 0
BBX 6 9 0 0
BITMAP
38
44
44
04
08
10
20
44
F8
ENDCHAR

STARTCHAR three
ENCODING 51
SWIDTH 556 0
DWIDTH 7 0
BBX 6 9 0 0
BITMAP
18
24
44
0C
30
08
0C
88
70
ENDCHAR

STARTCHAR four
ENCODING 52
SWIDTH 556 0
DWIDTH 7 0
BBX 7 9 0 0
BITMAP
04
0C
14
24
48
FE
08
08
08
ENDCHAR

STARTCHAR five
ENCODING 53
SWIDTH 556 0
DWIDTH 7 0
BBX 7 9 0 0
BITMAP
3E
20
20
78
04
04
04
88
70
ENDCHAR

STARTCHAR six
ENCODING 54
SWIDTH 556 0
DWIDTH 7 0
BBX 6 8 0 0
BITMAP
0C
30
40
F8
C4
84
88
70
ENDCHAR

STARTCHAR seven
ENCODING 55
SWIDTH 556 0
DWIDTH 7 0
BBX 7 9 0 0
BITMAP
7E
42
04
08
08
10
20
40
C0
ENDCHAR

STARTCHAR eight
ENCODING 56
SWIDTH 556 0
DWIDTH 7 0
BBX 6 9 0 0
BITMAP
18
24
44
68
70
8C
84
88
70
ENDCHAR

STARTCHAR nine
ENCODING 57
SWIDTH 556 0
DWIDTH 7 0
BBX 6 9 1 0
BITMAP
38
44
84
84
8C
78
18
20
C0
ENDCHAR

STARTCHAR colon
ENCODING 58
SWIDTH 319 0
DWIDTH 4 0
BBX 2 6 1 0
BITMAP
40
00
00
00
00
80
ENDCHAR

STARTCHAR semicolon
ENCODING 59
SWIDTH 319 0
DWIDTH 4 0
BBX 3 8 0 -2
BITMAP
60
00
00
00
00
40
40
80
ENDCHAR

STARTCHAR less
ENCODING 60
SWIDTH 833 0
DWIDTH 10 0
BBX 7 6 1 0
BITMAP
06
18
E0
60
18
06
ENDCHAR

STARTCHAR equal
ENCODING 61
SWIDTH 833 0
DWIDTH 10 0
BBX 7 3 2 2
BITMAP
FE
00
FE
ENDCHAR

STARTCHAR greater
ENCODING 62
SWIDTH 833 0
DWIDTH 10 0
BBX 7 6 2 0
BITMAP
C0
30
0E
0C
30
C0
ENDCHAR

STARTCHAR question
ENCODING 63
SWIDTH 486 0
DWIDTH 6 0
BBX 4 9 1 0
BITMAP
60
90
10
10
20
40
80
00
80
ENDCHAR

STARTCHAR at
ENCODING 64
SWIDTH 942 0
DWIDTH 12 0
BBX 10 10 1 -2
BITMAP
0F00
3080
4740
8A40
9240
9280
CF00
4000
3180
0E00
ENDCHAR

STARTCHAR A
ENCODING 65
SWIDTH 606 0
DWIDTH 8 0
BBX 9 9 -1 0
BITMAP
0600
0600
0A00
1200
1200
3F00
2100
4100
E380
ENDCHAR

STARTCHAR B
ENCODING 66
SWIDTH 588 0
DWIDTH 8 0
BBX 7 9 0 0
BITMAP
7C
22
22
24
3C
22
42
44
F8
ENDCHAR

STARTCHAR C
ENCODING 67
SWIDTH 604 0
DWIDTH 8 0
BBX 7 9 1 0
BITMAP
1E
22
42
80
80
80
84
44
38
ENDCHAR

STARTCHAR D
ENCODING 68
SWIDTH 671 0
DWIDTH 9 0
BBX 8 9 0 0
BITMAP
7C
22
21
21
21
61
42
44
F8
ENDCHAR

STARTCHAR E
ENCODING 69
SWIDTH 546 0
DWIDTH 7 0
BBX 7 9 0 0
BITMAP
7E
22
20
24
38
68
40
44
FC
ENDCHAR

STARTCHAR F
ENCODING 70
SWIDTH 509 0
DWIDTH 6 0
BBX 7 9 0 0
BITMAP
7E
22
20
24
38
68
40
40
E0
ENDCHAR

STARTCHAR G
ENCODING 71
SWIDTH 664 0
DWIDTH 8 0
BBX 8 9 0 0
BITMAP
1F
61
40
80
87
82
86
44
3C
ENDCHAR

STARTCHAR H
ENCODING 72
SWIDTH 712 0
DWIDTH 9 0
BBX 10 9 0 0
BITMAP
79C0
3080
2080
2100
3F00
2100
4100
4300
E780
ENDCHAR

STARTCHAR I
ENCODING 73
SWIDTH 313 0
DWIDTH 4 0
BBX 4 9 0 0
BITMAP
70
20
20
20
20
40
40
40
E0
ENDCHAR

STARTCHAR J
ENCODING 74
SWIDTH 447 0
DWIDTH 5 0
BBX 6 9 -1 0
BITMAP
1C
08
08
08
10
10
90
B0
E0
ENDCHAR

STARTCHAR K
ENCODING 75
SWIDTH 625 0
DWIDTH 8 0
BBX 9 9 0 0
BITMAP
7B80
3300
2400
2800
3800
2800
4400
4400
E300
ENDCHAR

STARTCHAR L
ENCODING 76
SWIDTH 498 0
DWIDTH 7 0
BBX 6 9 0 0
BITMAP
70
20
20
20
20
60
44
44
FC
ENDCHAR

STARTCHAR M
ENCODING 77
SWIDTH 839 0
DWIDTH 10 0
BBX 11 9 0 0
BITMAP
70E0
30C0
3140
3140
5A80
4A80
4C80
4C80
E9C0
ENDCHAR

STARTCHAR N
ENCODING 78
SWIDTH 683 0
DWIDTH 8 0
BBX 9 9 0 0
BITMAP
6380
3100
3100
2900
4900
4E00
4600
4600
E200
ENDCHAR

STARTCHAR O
ENCODING 79
SWIDTH 708 0
DWIDTH 9 0
BBX 8 9 1 0
BITMAP
1C
22
41
81
81
81
82
44
38
ENDCHAR

STARTCHAR P
ENCODING 80
SWIDTH 542 0
DWIDTH 7 0
BBX 7 9 0 0
BITMAP
7C
22
22
22
24
78
40
40
E0
ENDCHAR

STARTCHAR Q
ENCODING 81
SWIDTH 708 0
DWIDTH 9 0
BBX 8 11 1 -2
BITMAP
18
24
42
82
82
82
84
4C
38
08
07
ENDCHAR

STARTCHAR R
ENCODING 82
SWIDTH 602 0
DWIDTH 8 0
BBX 8 9 0 0
BITMAP
7C
22
22
24
38
24
44
44
E3
ENDCHAR

STARTCHAR S
ENCODING 83
SWIDTH 537 0
DWIDTH 7 0
BBX 7 9 0 0
BITMAP
1E
22
44
60
38
04
84
88
70
ENDCHAR

STARTCHAR T
ENCODING 84
SWIDTH 565 0
DWIDTH 7 0
BBX 7 9 1 0
BITMAP
FE
92
10
10
20
20
20
20
70
ENDCHAR

STARTCHAR U
ENCODING 85
SWIDTH 664 0
DWIDTH 8 0
BBX 8 9 1 0
BITMAP
E7
42
42
42
84
84
84
88
70
ENDCHAR

STARTCHAR V
ENCODING 86
SWIDTH 590 0
DWIDTH 7 0
BBX 8 9 0 0
BITMAP
E3
42
42
44
44
28
30
30
20
ENDCHAR

STARTCHAR W
ENCODING 87
SWIDTH 898 0
DWIDTH 11 0
BBX 11 9 1 0
BITMAP
E460
4440
4C40
4C80
5280
5300
6300
6200
4200
ENDCHAR

STARTCHAR X
ENCODING 88
SWIDTH 569 0
DWIDTH 7 0
BBX 9 9 -1 0
BITMAP
3B80
1100
1200
0C00
0800
1400
2400
4200
E700
ENDCHAR

STARTCHAR Y
ENCODING 89
SWIDTH 563 0
DWIDTH 7 0
BBX 8 9 0 0
BITMAP
E7
42
64
28
30
30
20
20
70
ENDCHAR

STARTCHAR Z
ENCODING 90
SWIDTH 556 0
DWIDTH 7 0
BBX 7 9 0 0
BITMAP
3E
44
4C
08
10
20
64
44
FC
ENDCHAR

STARTCHAR bracketleft
ENCODING 91
SWIDTH 421 0
DWIDTH 6 0
BBX 5 10 1 -2
BITMAP
38
20
20
40
40
40
40
80
80
E0
ENDCHAR

STARTCHAR backslash
ENCODING 92
SWIDTH 481 0
DWIDTH 6 0
BBX 6 10 0 -1
BITMAP
80
40
40
20
20
10
10
08
08
04
ENDCHAR

STARTCHAR bracketright
ENCODING 93
SWIDTH 421 0
DWIDTH 5 0
BBX 5 10 -1 -2
BITMAP
38
08
08
10
10
10
10
20
20
E0
ENDCHAR

STARTCHAR asciicircum
ENCODING 94
SWIDTH 1000 0
DWIDTH 12 0
BBX 7 3 2 5
BITMAP
38
44
82
ENDCHAR

STARTCHAR underscore
ENCODING 95
SWIDTH 500 0
DWIDTH 6 0
BBX 6 1 0 -3
BITMAP
FC
ENDCHAR

STARTCHAR quoteleft
ENCODING 96
SWIDTH 201 0
DWIDTH 3 0
BBX 2 3 1 5
BITMAP
40
80
C0
ENDCHAR

STARTCHAR a
ENCODING 97
SWIDTH 525 0
DWIDTH 7 0
BBX 6 6 0 0
BITMAP
3C
4C
88
88
90
7C
ENDCHAR

STARTCHAR b
ENCODING 98
SWIDTH 507 0
DWIDTH 6 0
BBX 5 9 0 0
BITMAP
C0
40
40
70
48
88
88
90
60
ENDCHAR

STARTCHAR c
ENCODING 99
SWIDTH 394 0
DWIDTH 5 0
BBX 4 6 0 0
BITMAP
30
50
80
80
90
60
ENDCHAR

STARTCHAR d
ENCODING 100
SWIDTH 523 0
DWIDTH 7 0
BBX 6 9 0 0
BITMAP
0C
04
08
38
48
88
88
90
6C
ENDCHAR

STARTCHAR e
ENCODING 101
SWIDTH 424 0
DWIDTH 5 0
BBX 4 6 0 0
BITMAP
20
50
A0
C0
90
60
ENDCHAR

STARTCHAR f
ENCODING 102
SWIDTH 292 0
DWIDTH 4 0
BBX 7 12 -2 -3
BITMAP
06
0A
10
3C
10
10
10
10
20
20
20
C0
ENDCHAR

STARTCHAR g
ENCODING 103
SWIDTH 481 0
DWIDTH 6 0
BBX 6 9 0 -3
BITMAP
34
48
48
30
20
20
D8
88
70
ENDCHAR

STARTCHAR h
ENCODING 104
SWIDTH 551 0
DWIDTH 7 0
BBX 7 9 0 0
BITMAP
60
20
20
3C
64
44
48
48
CE
ENDCHAR

STARTCHAR i
ENCODING 105
SWIDTH 287 0
DWIDTH 4 0
BBX 3 9 1 0
BITMAP
60
00
00
C0
40
40
80
80
E0
ENDCHAR

STARTCHAR j
ENCODING 106
SWIDTH 269 0
DWIDTH 3 0
BBX 5 12 -2 -3
BITMAP
08
00
00
38
10
10
10
10
10
20
20
C0
ENDCHAR

STARTCHAR k
ENCODING 107
SWIDTH 514 0
DWIDTH 6 0
BBX 6 9 0 0
BITMAP
60
20
20
4C
50
60
50
58
8C
ENDCHAR

STARTCHAR l
ENCODING 108
SWIDTH 275 0
DWIDTH 3 0
BBX 2 9 0 0
BITMAP
C0
40
40
40
80
80
80
80
C0
ENDCHAR

STARTCHAR m
ENCODING 109
SWIDTH 815 0
DWIDTH 10 0
BBX 9 6 1 0
BITMAP
DB00
6D00
4900
8900
9200
9380
ENDCHAR

STARTCHAR n
ENCODING 110
SWIDTH 556 0
DWIDTH 7 0
BBX 6 6 1 0
BITMAP
D8
68
48
88
90
9C
ENDCHAR

STARTCHAR o
ENCODING 111
SWIDTH 502 0
DWIDTH 6 0
BBX 5 6 0 0
BITMAP
30
48
88
88
90
60
ENDCHAR

STARTCHAR p
ENCODING 112
SWIDTH 516 0
DWIDTH 6 0
BBX 6 9 -1 -3
BITMAP
7C
24
24
44
48
70
40
40
E0
ENDCHAR

STARTCHAR q
ENCODING 113
SWIDTH 512 0
DWIDTH 6 0
BBX 5 9 0 -3
BITMAP
38
48
88
88
90
70
10
10
38
ENDCHAR

STARTCHAR r
ENCODING 114
SWIDTH 398 0
DWIDTH 5 0
BBX 5 6 0 0
BITMAP
D8
68
40
40
80
80
ENDCHAR

STARTCHAR s
ENCODING 115
SWIDTH 370 0
DWIDTH 5 0
BBX 4 6 0 0
BITMAP
30
50
40
30
90
60
ENDCHAR

STARTCHAR t
ENCODING 116
SWIDTH 333 0
DWIDTH 4 0
BBX 3 7 1 0
BITMAP
40
E0
80
80
80
80
C0
ENDCHAR

STARTCHAR u
ENCODING 117
SWIDTH 553 0
DWIDTH 7 0
BBX 6 6 0 0
BITMAP
C4
44
48
88
98
EC
ENDCHAR

STARTCHAR v
ENCODING 118
SWIDTH 454 0
DWIDTH 6 0
BBX 6 6 0 0
BITMAP
C4
44
28
28
30
20
ENDCHAR

STARTCHAR w
ENCODING 119
SWIDTH 713 0
DWIDTH 9 0
BBX 9 6 0 0
BITMAP
C880
4C80
5480
5500
6600
4400
ENDCHAR

STARTCHAR x
ENCODING 120
SWIDTH 477 0
DWIDTH 6 0
BBX 7 6 -1 0
BITMAP
66
2A
10
30
A8
CC
ENDCHAR

STARTCHAR y
ENCODING 121
SWIDTH 475 0
DWIDTH 6 0
BBX 7 9 -1 -3
BITMAP
62
24
14
18
18
10
10
A0
C0
ENDCHAR

STARTCHAR z
ENCODING 122
SWIDTH 440 0
DWIDTH 6 0
BBX 6 6 0 0
BITMAP
7C
48
10
28
44
F8
ENDCHAR

STARTCHAR braceleft
ENCODING 123
SWIDTH 486 0
DWIDTH 6 0
BBX 5 10 0 -2
BITMAP
18
20
20
20
C0
20
20
20
20
18
ENDCHAR

STARTCHAR bar
ENCODING 124
SWIDTH 500 0
DWIDTH 6 0
BBX 1 12 3 -3
BITMAP
80
80
80
80
80
80
80
80
80
80
80
80
ENDCHAR

STARTCHAR braceright
ENCODING 125
SWIDTH 486 0
DWIDTH 6 0
BBX 5 10 0 -2
BITMAP
C0
20
20
20
18
20
20
20
20
C0
ENDCHAR

STARTCHAR c0126
ENCODING 126
SWIDTH 1000 0
DWIDTH 12 0
BBX 8 2 2 5
BITMAP
71
8E
ENDCHAR

STARTCHAR space
ENCODING 160
SWIDTH 278 0
DWIDTH 3 0
BBX 1 1 0 0
BITMAP
00
ENDCHAR

STARTCHAR exclamdown
ENCODING 161
SWIDTH 338 0
DWIDTH 4 0
BBX 3 9 1 0
BITMAP
60
00
40
40
40
40
C0
C0
80
ENDCHAR

STARTCHAR cent
ENCODING 162
SWIDTH 556 0
DWIDTH 7 0
BBX 6 8 0 -1
BITMAP
10
3C
54
90
A0
A8
78
20
ENDCHAR

STARTCHAR sterling
ENCODING 163
SWIDTH 556 0
DWIDTH 7 0
BBX 7 9 0 0
BITMAP
0E
12
20
20
78
20
40
40
FC
ENDCHAR

STARTCHAR EuroSign
ENCODING 164
SWIDTH 500 0
DWIDTH 6 0
BBX 7 9 0 0
BITMAP
0E
32
40
F8
40
F0
40
44
78
ENDCHAR

STARTCHAR yen
ENCODING 165
SWIDTH 556 0
DWIDTH 7 0
BBX 8 9 0 0
BITMAP
73
22
24
EE
10
FE
10
20
70
ENDCHAR

STARTCHAR Scaron
ENCODING 166
SWIDTH 537 0
DWIDTH 7 0
BBX 7 11 0 0
BITMAP
14
08
1E
22
44
60
38
04
84
88
70
ENDCHAR

STARTCHAR section
ENCODING 167
SWIDTH 500 0
DWIDTH 6 0
BBX 6 10 0 -2
BITMAP
3C
44
40
70
88
88
70
10
90
E0
ENDCHAR

STARTCHAR scaron
ENCODING 168
SWIDTH 370 0
DWIDTH 5 0
BBX 4 8 0 0
BITMAP
50
20
30
50
40
30
90
60
ENDCHAR

STARTCHAR copyright
ENCODING 169
SWIDTH 900 0
DWIDTH 11 0
BBX 9 9 1 0
BITMAP
1C00
2200
5D00
A480
A080
A480
5D00
2200
1C00
ENDCHAR

STARTCHAR ordfeminine
ENCODING 170
SWIDTH 394 0
DWIDTH 5 0
BBX 4 4 0 4
BITMAP
30
D0
A0
50
ENDCHAR

STARTCHAR guillemotleft
ENCODING 171
SWIDTH 442 0
DWIDTH 6 0
BBX 5 4 0 1
BITMAP
28
D0
B0
50
ENDCHAR

STARTCHAR logicalnot
ENCODING 172
SWIDTH 833 0
DWIDTH 10 0
BBX 7 3 2 2
BITMAP
FE
02
02
ENDCHAR

STARTCHAR hyphen
ENCODING 173
SWIDTH 319 0
DWIDTH 4 0
BBX 3 1 0 2
BITMAP
E0
ENDCHAR

STARTCHAR registered
ENCODING 174
SWIDTH 900 0
DWIDTH 11 0
BBX 9 9 1 0
BITMAP
1C00
2200
7900
9480
9880
9480
7700
2200
1C00
ENDCHAR

STARTCHAR macron
ENCODING 175
SWIDTH 500 0
DWIDTH 6 0
BBX 4 1 2 7
BITMAP
F0
ENDCHAR

STARTCHAR degree
ENCODING 176
SWIDTH 329 0
DWIDTH 4 0
BBX 3 3 1 5
BITMAP
40
A0
40
ENDCHAR

STARTCHAR plusminus
ENCODING 177
SWIDTH 833 0
DWIDTH 10 0
BBX 7 7 2 0
BITMAP
10
10
FE
10
10
00
FE
ENDCHAR

STARTCHAR twosuperior
ENCODING 178
SWIDTH 367 0
DWIDTH 5 0
BBX 5 5 0 4
BITMAP
30
48
10
68
F0
ENDCHAR

STARTCHAR threesuperior
ENCODING 179
SWIDTH 367 0
DWIDTH 5 0
BBX 5 5 0 4
BITMAP
70
18
30
18
E0
ENDCHAR

STARTCHAR Zcaron
ENCODING 180
SWIDTH 556 0
DWIDTH 7 0
BBX 7 11 0 0
BITMAP
14
08
3E
44
4C
08
10
20
64
44
FC
ENDCHAR

STARTCHAR mu
ENCODING 181
SWIDTH 548 0
DWIDTH 7 0
BBX 7 8 0 -3
BITMAP
44
48
48
4A
B4
80
80
80
ENDCHAR

STARTCHAR paragraph
ENCODING 182
SWIDTH 484 0
DWIDTH 6 0
BBX 6 10 0 -1
BITMAP
7C
E8
E8
E8
68
08
08
08
08
08
ENDCHAR

STARTCHAR periodcentered
ENCODING 183
SWIDTH 278 0
DWIDTH 3 0
BBX 1 1 1 3
BITMAP
80
ENDCHAR

STARTCHAR zcaron
ENCODING 184
SWIDTH 440 0
DWIDTH 6 0
BBX 6 8 0 0
BITMAP
28
10
7C
48
10
28
44
F8
ENDCHAR

STARTCHAR onesuperior
ENCODING 185
SWIDTH 367 0
DWIDTH 4 0
BBX 2 5 1 4
BITMAP
40
C0
40
40
C0
ENDCHAR

STARTCHAR ordmasculine
ENCODING 186
SWIDTH 377 0
DWIDTH 5 0
BBX 4 4 0 4
BITMAP
60
90
90
60
ENDCHAR

STARTCHAR guillemotright
ENCODING 187
SWIDTH 442 0
DWIDTH 6 0
BBX 5 4 0 1
BITMAP
50
68
58
A0
ENDCHAR

STARTCHAR Ligature_OE
ENCODING 188
SWIDTH 916 0
DWIDTH 11 0
BBX 10 9 1 0
BITMAP
1FC0
2440
4400
4480
8780
8900
8800
8840
7F80
ENDCHAR

STARTCHAR Ligature_oe
ENCODING 189
SWIDTH 666 0
DWIDTH 8 0
BBX 7 6 0 0
BITMAP
36
5A
94
98
92
6C
ENDCHAR

STARTCHAR Ydiaeresis
ENCODING 190
SWIDTH 563 0
DWIDTH 7 0
BBX 8 10 0 0
BITMAP
14
E7
42
64
28
30
30
20
20
70
ENDCHAR

STARTCHAR questiondown
ENCODING 191
SWIDTH 486 0
DWIDTH 6 0
BBX 4 9 0 0
BITMAP
10
00
10
20
40
80
80
90
60
ENDCHAR

STARTCHAR Agrave
ENCODING 192
SWIDTH 606 0
DWIDTH 8 0
BBX 9 11 -1 0
BITMAP
0800
0400
0600
0600
0A00
1200
1200
3F00
2100
4100
E380
ENDCHAR

STARTCHAR Aacute
ENCODING 193
SWIDTH 606 0
DWIDTH 8 0
BBX 9 11 -1 0
BITMAP
0300
0400
0600
0600
0A00
1200
1200
3F00
2100
4100
E380
ENDCHAR

STARTCHAR Acircumflex
ENCODING 194
SWIDTH 606 0
DWIDTH 8 0
BBX 9 11 -1 0
BITMAP
0400
0A00
0600
0600
0A00
1200
1200
3F00
2100
4100
E380
ENDCHAR

STARTCHAR Atilde
ENCODING 195
SWIDTH 606 0
DWIDTH 8 0
BBX 9 10 -1 0
BITMAP
0500
0E00
0600
0A00
1200
1200
3F00
2100
4100
E380
ENDCHAR

STARTCHAR Adieresis
ENCODING 196
SWIDTH 606 0
DWIDTH 8 0
BBX 9 10 -1 0
BITMAP
0A00
0600
0600
0A00
1200
1200
3F00
2100
4100
E380
ENDCHAR

STARTCHAR Aring
ENCODING 197
SWIDTH 606 0
DWIDTH 8 0
BBX 9 12 -1 0
BITMAP
0700
0700
0000
0600
0600
0A00
1200
1200
3F00
2100
4100
E380
ENDCHAR

STARTCHAR AE
ENCODING 198
SWIDTH 873 0
DWIDTH 11 0
BBX 12 9 -1 0
BITMAP
07F0
0310
0500
0920
11C0
1F40
2200
4220
C7E0
ENDCHAR

STARTCHAR Ccedilla
ENCODING 199
SWIDTH 604 0
DWIDTH 8 0
BBX 7 12 1 -3
BITMAP
1E
22
42
80
80
80
84
44
38
18
08
30
ENDCHAR

STARTCHAR Egrave
ENCODING 200
SWIDTH 546 0
DWIDTH 7 0
BBX 7 11 0 0
BITMAP
10
08
7E
22
20
24
38
68
40
44
FC
ENDCHAR

STARTCHAR Eacute
ENCODING 201
SWIDTH 546 0
DWIDTH 7 0
BBX 7 11 0 0
BITMAP
06
08
7E
22
20
24
38
68
40
44
FC
ENDCHAR

STARTCHAR Ecircumflex
ENCODING 202
SWIDTH 546 0
DWIDTH 7 0
BBX 7 11 0 0
BITMAP
08
14
7E
22
20
24
38
68
40
44
FC
ENDCHAR

STARTCHAR Edieresis
ENCODING 203
SWIDTH 546 0
DWIDTH 7 0
BBX 7 10 0 0
BITMAP
14
7E
22
20
24
38
68
40
44
FC
ENDCHAR

STARTCHAR Igrave
ENCODING 204
SWIDTH 313 0
DWIDTH 4 0
BBX 4 11 0 0
BITMAP
40
20
70
20
20
20
20
40
40
40
E0
ENDCHAR

STARTCHAR Iacute
ENCODING 205
SWIDTH 313 0
DWIDTH 4 0
BBX 5 11 0 0
BITMAP
18
20
70
20
20
20
20
40
40
40
E0
ENDCHAR

STARTCHAR Icircumflex
ENCODING 206
SWIDTH 313 0
DWIDTH 4 0
BBX 4 11 0 0
BITMAP
20
50
70
20
20
20
20
40
40
40
E0
ENDCHAR

STARTCHAR Idieresis
ENCODING 207
SWIDTH 313 0
DWIDTH 4 0
BBX 4 10 0 0
BITMAP
50
70
20
20
20
20
40
40
40
E0
ENDCHAR

STARTCHAR Eth
ENCODING 208
SWIDTH 671 0
DWIDTH 9 0
BBX 8 9 0 0
BITMAP
7C
22
21
21
79
21
42
44
F8
ENDCHAR

STARTCHAR Ntilde
ENCODING 209
SWIDTH 683 0
DWIDTH 8 0
BBX 9 10 0 0
BITMAP
0A00
7780
3100
3100
2900
4900
4E00
4600
4600
E200
ENDCHAR

STARTCHAR Ograve
ENCODING 210
SWIDTH 708 0
DWIDTH 9 0
BBX 8 11 1 0
BITMAP
10
08
1C
22
41
81
81
81
82
44
38
ENDCHAR

STARTCHAR Oacute
ENCODING 211
SWIDTH 708 0
DWIDTH 9 0
BBX 8 11 1 0
BITMAP
06
08
1C
22
41
81
81
81
82
44
38
ENDCHAR

STARTCHAR Ocircumflex
ENCODING 212
SWIDTH 708 0
DWIDTH 9 0
BBX 8 11 1 0
BITMAP
08
14
1C
22
41
81
81
81
82
44
38
ENDCHAR

STARTCHAR Otilde
ENCODING 213
SWIDTH 708 0
DWIDTH 9 0
BBX 8 10 1 0
BITMAP
0A
1C
22
41
81
81
81
82
44
38
ENDCHAR

STARTCHAR Odieresis
ENCODING 214
SWIDTH 708 0
DWIDTH 9 0
BBX 8 10 1 0
BITMAP
14
1C
22
41
81
81
81
82
44
38
ENDCHAR

STARTCHAR multiply
ENCODING 215
SWIDTH 833 0
DWIDTH 10 0
BBX 7 7 2 0
BITMAP
82
44
28
10
28
44
82
ENDCHAR

STARTCHAR Oslash
ENCODING 216
SWIDTH 708 0
DWIDTH 9 0
BBX 8 10 1 -1
BITMAP
1E
22
45
89
91
91
A2
44
78
80
ENDCHAR

STARTCHAR Ugrave
ENCODING 217
SWIDTH 664 0
DWIDTH 8 0
BBX 8 11 1 0
BITMAP
20
10
E7
42
42
42
84
84
84
88
70
ENDCHAR

STARTCHAR Uacute
ENCODING 218
SWIDTH 664 0
DWIDTH 8 0
BBX 8 11 1 0
BITMAP
0C
10
E7
42
42
42
84
84
84
88
70
ENDCHAR

STARTCHAR Ucircumflex
ENCODING 219
SWIDTH 664 0
DWIDTH 8 0
BBX 8 11 1 0
BITMAP
10
28
E7
42
42
42
84
84
84
88
70
ENDCHAR

STARTCHAR Udieresis
ENCODING 220
SWIDTH 664 0
DWIDTH 8 0
BBX 8 10 1 0
BITMAP
28
E7
42
42
42
84
84
84
88
70
ENDCHAR

STARTCHAR Yacute
ENCODING 221
SWIDTH 563 0
DWIDTH 7 0
BBX 8 11 0 0
BITMAP
0C
10
E7
42
64
28
30
30
20
20
70
ENDCHAR

STARTCHAR Thorn
ENCODING 222
SWIDTH 532 0
DWIDTH 7 0
BBX 7 9 0 0
BITMAP
78
3C
22
22
22
24
78
40
E0
ENDCHAR

STARTCHAR germandbls
ENCODING 223
SWIDTH 574 0
DWIDTH 7 0
BBX 8 12 -2 -3
BITMAP
06
09
11
13
14
16
23
29
26
20
20
C0
ENDCHAR

STARTCHAR agrave
ENCODING 224
SWIDTH 525 0
DWIDTH 7 0
BBX 6 9 0 0
BITMAP
20
10
00
3C
4C
88
88
90
7C
ENDCHAR

STARTCHAR aacute
ENCODING 225
SWIDTH 525 0
DWIDTH 7 0
BBX 6 9 0 0
BITMAP
0C
10
00
3C
4C
88
88
90
7C
ENDCHAR

STARTCHAR acircumflex
ENCODING 226
SWIDTH 525 0
DWIDTH 7 0
BBX 6 9 0 0
BITMAP
10
28
00
3C
4C
88
88
90
7C
ENDCHAR

STARTCHAR atilde
ENCODING 227
SWIDTH 525 0
DWIDTH 7 0
BBX 6 8 0 0
BITMAP
14
28
3C
4C
88
88
90
7C
ENDCHAR

STARTCHAR adieresis
ENCODING 228
SWIDTH 525 0
DWIDTH 7 0
BBX 6 8 0 0
BITMAP
28
00
3C
4C
88
88
90
7C
ENDCHAR

STARTCHAR aring
ENCODING 229
SWIDTH 525 0
DWIDTH 7 0
BBX 6 9 0 0
BITMAP
38
38
00
3C
4C
88
88
90
7C
ENDCHAR

STARTCHAR ae
ENCODING 230
SWIDTH 671 0
DWIDTH 8 0
BBX 7 6 0 0
BITMAP
34
5A
16
78
92
EC
ENDCHAR

STARTCHAR ccedilla
ENCODING 231
SWIDTH 394 0
DWIDTH 5 0
BBX 4 9 0 -3
BITMAP
30
50
80
80
90
60
60
20
C0
ENDCHAR

STARTCHAR egrave
ENCODING 232
SWIDTH 424 0
DWIDTH 5 0
BBX 4 9 0 0
BITMAP
20
10
00
20
50
A0
C0
90
60
ENDCHAR

STARTCHAR eacute
ENCODING 233
SWIDTH 424 0
DWIDTH 5 0
BBX 6 9 0 0
BITMAP
0C
10
00
20
50
A0
C0
90
60
ENDCHAR

STARTCHAR ecircumflex
ENCODING 234
SWIDTH 424 0
DWIDTH 5 0
BBX 5 9 0 0
BITMAP
10
28
00
20
50
A0
C0
90
60
ENDCHAR

STARTCHAR edieresis
ENCODING 235
SWIDTH 424 0
DWIDTH 5 0
BBX 5 8 0 0
BITMAP
28
00
20
50
A0
C0
90
60
ENDCHAR

STARTCHAR igrave
ENCODING 236
SWIDTH 287 0
DWIDTH 4 0
BBX 3 9 1 0
BITMAP
80
40
00
C0
40
40
80
80
E0
ENDCHAR

STARTCHAR iacute
ENCODING 237
SWIDTH 287 0
DWIDTH 4 0
BBX 4 9 1 0
BITMAP
30
40
00
C0
40
40
80
80
E0
ENDCHAR

STARTCHAR icircumflex
ENCODING 238
SWIDTH 287 0
DWIDTH 4 0
BBX 3 9 1 0
BITMAP
40
A0
00
C0
40
40
80
80
E0
ENDCHAR

STARTCHAR idieresis
ENCODING 239
SWIDTH 287 0
DWIDTH 4 0
BBX 3 8 1 0
BITMAP
A0
00
C0
40
40
80
80
E0
ENDCHAR

STARTCHAR eth
ENCODING 240
SWIDTH 500 0
DWIDTH 6 0
BBX 5 9 0 0
BITMAP
28
30
50
38
48
88
88
90
60
ENDCHAR

STARTCHAR ntilde
ENCODING 241
SWIDTH 556 0
DWIDTH 7 0
BBX 6 8 1 0
BITMAP
28
50
D8
68
48
88
90
9C
ENDCHAR

STARTCHAR ograve
ENCODING 242
SWIDTH 502 0
DWIDTH 6 0
BBX 5 9 0 0
BITMAP
20
10
00
30
48
88
88
90
60
ENDCHAR

STARTCHAR oacute
ENCODING 243
SWIDTH 502 0
DWIDTH 6 0
BBX 6 9 0 0
BITMAP
0C
10
00
30
48
88
88
90
60
ENDCHAR

STARTCHAR ocircumflex
ENCODING 244
SWIDTH 502 0
DWIDTH 6 0
BBX 5 9 0 0
BITMAP
10
28
00
30
48
88
88
90
60
ENDCHAR

STARTCHAR otilde
ENCODING 245
SWIDTH 502 0
DWIDTH 6 0
BBX 6 8 0 0
BITMAP
14
28
30
48
88
88
90
60
ENDCHAR

STARTCHAR odieresis
ENCODING 246
SWIDTH 502 0
DWIDTH 6 0
BBX 5 8 0 0
BITMAP
28
00
30
48
88
88
90
60
ENDCHAR

STARTCHAR divide
ENCODING 247
SWIDTH 833 0
DWIDTH 10 0
BBX 7 5 2 1
BITMAP
10
00
FE
00
10
ENDCHAR

STARTCHAR oslash
ENCODING 248
SWIDTH 502 0
DWIDTH 6 0
BBX 5 8 0 -1
BITMAP
08
30
58
A8
A8
D0
60
80
ENDCHAR

STARTCHAR ugrave
ENCODING 249
SWIDTH 553 0
DWIDTH 7 0
BBX 6 9 0 0
BITMAP
20
10
00
C4
44
48
88
98
EC
ENDCHAR

STARTCHAR uacute
ENCODING 250
SWIDTH 553 0
DWIDTH 7 0
BBX 6 9 0 0
BITMAP
0C
10
00
C4
44
48
88
98
EC
ENDCHAR

STARTCHAR ucircumflex
ENCODING 251
SWIDTH 553 0
DWIDTH 7 0
BBX 6 9 0 0
BITMAP
10
28
00
C4
44
48
88
98
EC
ENDCHAR

STARTCHAR udieresis
ENCODING 252
SWIDTH 553 0
DWIDTH 7 0
BBX 6 8 0 0
BITMAP
28
00
C4
44
48
88
98
EC
ENDCHAR

STARTCHAR yacute
ENCODING 253
SWIDTH 475 0
DWIDTH 6 0
BBX 7 12 -1 -3
BITMAP
06
08
00
62
24
14
18
18
10
10
A0
C0
ENDCHAR

STARTCHAR thorn
ENCODING 254
SWIDTH 516 0
DWIDTH 6 0
BBX 6 12 -1 -3
BITMAP
60
20
20
38
24
24
44
48
70
40
40
E0
ENDCHAR

STARTCHAR ydieresis
ENCODING 255
SWIDTH 475 0
DWIDTH 6 0
BBX 7 11 -1 -3
BITMAP
14
00
62
24
14
18
18
10
10
A0
C0
ENDCHAR
ENDFONT
